<?xml version="1.0" encoding="UTF-8"?>
<!DOCTYPE svg PUBLIC "-//W3C//DTD SVG 1.1//EN" "http://www.w3.org/Graphics/SVG/1.1/DTD/svg11.dtd">
<!-- Creator: CorelDRAW 2021 (64-Bit) -->
<svg xmlns="http://www.w3.org/2000/svg" xml:space="preserve" width="6600px" height="9000px" version="1.1" style="shape-rendering:geometricPrecision; text-rendering:geometricPrecision; image-rendering:optimizeQuality; fill-rule:evenodd; clip-rule:evenodd"
viewBox="0 0 6600 9000"
 xmlns:xlink="http://www.w3.org/1999/xlink"
 xmlns:xodm="http://www.corel.com/coreldraw/odm/2003">
 <defs>
  <style type="text/css">
   <![CDATA[
    .fil0 {fill:url(#id0)}
   ]]>
  </style>
  <radialGradient id="id0" gradientUnits="userSpaceOnUse" gradientTransform="matrix(0.918515 -0 -0 0.999999 92 0)" cx="1131.1" cy="1610.47" r="1008.61" fx="1131.1" fy="1610.47">
   <stop offset="0" style="stop-opacity:1; stop-color:red"/>
   <stop offset="0.631373" style="stop-opacity:1; stop-color:#E40000"/>
   <stop offset="0.901961" style="stop-opacity:1; stop-color:#BE0000"/>
   <stop offset="1" style="stop-opacity:1; stop-color:#990000"/>
  </radialGradient>
 </defs>
 <g id="Layer_x0020_1">
  <metadata id="CorelCorpID_0Corel-Layer"/>
  <path class="fil0" d="M906.57 1910.53c2.91,48.03 -6.37,169.11 8.76,203.48 11.11,25.26 50.35,30.18 70.56,12.88 20.52,-17.58 17,-59.21 16.89,-89.54 -1.16,-298.84 31.11,-302.01 -119.77,-298.32 -68.9,1.69 -142.78,5.53 -211.26,0.66 -62.43,-4.43 -118.57,-29.67 -123.1,-89.6 -16.97,-224.44 130.23,-166.56 364.36,-168.98 111.51,-1.15 91.74,-14.83 87,-227.11 -1.3,-58.31 -6.74,-145.18 25.11,-187.96 44.81,-60.19 127.53,-23.7 164.6,-52.17 21.2,-16.28 36.84,-101.58 -95.01,-81.93 -295.97,44.1 -146.13,401.99 -191.16,449.81 -29.55,31.38 -413.9,-90.65 -450.47,186.69 -14.25,108.06 27.34,193.85 87.95,232.72 80.18,51.42 187.94,30.59 290.89,34.56 -8.54,14.97 -135.13,140.03 -157.8,162.73 -23.53,23.55 -143.06,150.28 -161.11,156.78 -60.16,-39.06 -125.28,-174.51 -157.79,-255.63 -104.65,-261.05 -44.32,-599.12 131.07,-809.87 98.7,-118.61 216.02,-201.39 361.63,-258.79 26.88,-10.6 142.68,-51.51 169.16,-31.15 10.15,7.8 46.04,84.43 145.02,60.83 121.57,-29 134.87,-190.79 28.9,-242.98 -118.13,-58.19 -163.92,62.06 -206.78,78.96 -23.24,9.16 -54.76,15.54 -82.22,21.9 -433.21,100.32 -735.02,539.8 -693.5,962.15 12.11,123.23 39.72,224.09 86.89,324.33 39.68,84.32 117.38,193.31 170.9,245.77 56.28,55.16 95.06,1.31 126.75,-33.41 31.48,-34.48 69.68,-72.58 103.53,-104.78 28.88,-27.46 189.4,-198.92 210,-202.03zm450.95 -604.63c-7.89,-69 27.79,-256.65 -69.03,-217.84 -34.26,13.74 -27.95,60.52 -28.29,99.28l-2.48 170.83c2.79,169.3 27.48,118.13 263.63,118.56 105.52,0.19 187.72,8.73 194.66,115.39 7.69,118.26 -46.09,148.37 -157.16,148.21 -65.34,-0.1 -130.68,-6.41 -195.84,-5.24 -84.28,1.5 -105.71,11.53 -105.5,98.08 0.22,89.04 23.85,262.15 -22.12,322.47 -32.12,42.15 -79.84,27.64 -137.37,42.09 -64.69,16.26 -46.15,80.28 8.88,90.95 84.8,16.43 190.52,-26.05 230.73,-122.25 44.58,-106.64 -2.56,-256.88 25.21,-325.04 44.43,-15.01 126.04,-3.38 179.34,-3.43 162.87,-0.15 269.71,-56.99 270.66,-225.46 0.47,-82.07 -28.45,-138.21 -69.9,-175.96 -73.5,-66.95 -198.13,-51.97 -311.34,-50.73 9.16,-26.51 120.82,-129.6 153.58,-163.81 30.3,-31.63 131.41,-136.41 161.17,-157.33 38.95,12.46 101.91,126.7 120.45,165 180.27,372.52 87.27,787.59 -217.9,1026.83 -93.54,73.33 -276.32,172.67 -398.39,170.89 -25.38,-30.99 -37.07,-57.98 -89.9,-69.76 -53.18,-11.87 -98.65,10.98 -123.33,37.28 -114.73,122.29 55.19,291.82 175.12,196 14.85,-11.87 24.55,-27.18 35.96,-47.21 15.11,-26.52 22.83,-19.98 55.33,-26.99 256.68,-55.38 459.76,-183.54 597.8,-399.2 167.56,-261.77 209.31,-568.36 80.35,-865.51 -42.75,-98.53 -109.59,-202.51 -168.7,-264.81 -59.79,-63.01 -65.76,-58.21 -124.58,0.7l-217.21 216.14c-16.96,20.07 -36.14,34.93 -54.3,53.98 -10.92,11.46 -40.57,50.62 -59.53,47.89zm-239.34 1117.91c-92.11,24.81 -50.56,146.99 31.13,124.86 76.2,-20.64 51.73,-147.17 -31.13,-124.86zm-7.88 -1748.95c-83.13,33.6 -35.99,147.96 43.47,119.86 80.68,-28.54 36.45,-152.17 -43.47,-119.86z"/>
 </g>
</svg>
